<svg width="50" height="45" viewBox="0 0 50 45" fill="none" xmlns="http://www.w3.org/2000/svg">
<path d="M4.875 45V12.75L0 2.125L4.5 0L10.375 12.625H39.375L45.25 0L49.75 2.125L44.875 12.75V45H4.875ZM19.875 27.5H29.875C30.5833 27.5 31.1775 27.26 31.6575 26.78C32.1375 26.3 32.3767 25.7067 32.375 25C32.3733 24.2933 32.1333 23.7 31.655 23.22C31.1767 22.74 30.5833 22.5 29.875 22.5H19.875C19.1667 22.5 18.5733 22.74 18.095 23.22C17.6167 23.7 17.3767 24.2933 17.375 25C17.3733 25.7067 17.6133 26.3008 18.095 26.7825C18.5767 27.2642 19.17 27.5033 19.875 27.5Z" fill="#2D3E4D"/>
</svg>
