<svg width="64" height="53" viewBox="0 0 64 53" fill="none" xmlns="http://www.w3.org/2000/svg">
<path d="M14.2187 32.0104V23.2604L8.75 26.25L0 11.0833L19.25 0H22.9687C23.7465 2.33333 24.6701 4.375 25.7396 6.125C26.809 7.875 28.8021 8.75 31.7187 8.75C34.6354 8.75 36.6285 7.875 37.6979 6.125C38.7674 4.375 39.691 2.33333 40.4687 0H44.1875L63.3646 11.1562L54.6875 26.25L49.2187 23.2604V37.2604L44.625 41.2708C44.2847 41.5625 43.8958 41.7939 43.4583 41.965C43.0208 42.1361 42.5833 42.2207 42.1458 42.2188C41.8542 42.2188 41.5139 42.1215 41.125 41.9271C40.7361 41.7326 40.3472 41.4896 39.9583 41.1979L32.2292 34.5625C30.6736 33.2014 28.9236 32.2049 26.9792 31.5729C25.0347 30.941 23.066 30.625 21.0729 30.625C19.9063 30.625 18.7512 30.7349 17.6079 30.9546C16.4646 31.1743 15.3349 31.5263 14.2187 32.0104ZM10.2812 47.7604L6.48958 43.3125L12.8333 37.9167C13.9514 36.9444 15.2279 36.2026 16.6629 35.6913C18.0979 35.1799 19.5922 34.9251 21.1458 34.9271C22.6994 34.929 24.1821 35.1847 25.5937 35.6942C27.0054 36.2036 28.2693 36.9444 29.3854 37.9167L37.8437 45.1354C38.4271 45.6215 39.1203 45.9988 39.9233 46.2671C40.7264 46.5354 41.5401 46.6686 42.3646 46.6667C43.2396 46.6667 44.0543 46.5451 44.8088 46.3021C45.5632 46.059 46.2311 45.6701 46.8125 45.1354L53.1562 39.6667L56.9479 44.1875L50.6042 49.5833C49.4861 50.5556 48.2222 51.2847 46.8125 51.7708C45.4028 52.2569 43.9201 52.5 42.3646 52.5C40.809 52.5 39.3147 52.2569 37.8817 51.7708C36.4486 51.2847 35.1721 50.5556 34.0521 49.5833L25.5937 42.3646C25.0104 41.8785 24.3425 41.5022 23.59 41.2358C22.8375 40.9694 22.0228 40.8353 21.1458 40.8333C20.3194 40.8333 19.5057 40.9675 18.7046 41.2358C17.9035 41.5042 17.2103 41.8804 16.625 42.3646L10.2812 47.7604Z" fill="#2D3E4D"/>
</svg>
